# xmcd
#
# Track frame offsets:
# 150
# 22390
# 38953
# 65313
# 101428
# 122335
# 143663
# 159833
#
# Disc length: 2558 seconds
#
#
# Revision: 3
# Processed by: cddbd v1.4PL0 Copyright (c) Steve Scherf et al.
# Submitted via: FreeRIP 2.11 
#
DISCID=6009fc08
DTITLE=Led Zeppelin - IV (Zoso)
DYEAR=1971
DGENRE=Classic Rock
TTITLE0=Black Dog
TTITLE1=Rock and Roll
TTITLE2=The Battle of Evermore
TTITLE3=Stairway to Heaven
TTITLE4=Misty Moutain Hop
TTITLE5=Four Sticks
TTITLE6=Going to California
TTITLE7=When the Levee Breaks
EXTD=YEAR: 1971 ID3G: 1
EXTT0=
EXTT1=
EXTT2=
EXTT3=
EXTT4=
EXTT5=
EXTT6=
EXTT7=
PLAYORDER=
